<svg width="20" height="21" viewBox="0 0 20 21" fill="none" xmlns="http://www.w3.org/2000/svg">
<g clip-path="url(#clip0_344_460)">
<path d="M15.8 12.9C15.4 12.4556 14.9333 12.2333 14.4 12.2333C13.8666 12.2333 13.3777 12.4556 12.9333 12.9L11.6 14.2333L10.8666 13.8333C9.62218 13.0333 8.46662 11.9667 7.39996 10.6333C6.86662 10.0111 6.48885 9.41111 6.26662 8.83333L7.59996 7.56667C8.0444 7.12222 8.26662 6.63333 8.26662 6.1C8.26662 5.56667 8.0444 5.07778 7.59996 4.63333L5.26662 2.3C4.82218 1.85555 4.3444 1.63333 3.83329 1.63333C3.32218 1.63333 2.8444 1.85555 2.39996 2.3L0.93329 3.76667C0.399957 4.3 0.088846 4.94444 -4.29093e-05 5.7C-0.0444874 6.63333 0.155513 7.67778 0.599957 8.83333C1.26662 10.6556 2.33329 12.4556 3.79996 14.2333C5.66662 16.4556 7.86662 18.1667 10.4 19.3667C11.8222 20.0333 13.0666 20.4111 14.1333 20.5H14.4C15.3777 20.5 16.1777 20.1444 16.8 19.4333H16.8666C17 19.2556 17.2222 19.0111 17.5333 18.7L18.1333 18.1C18.5777 17.6556 18.8 17.1667 18.8 16.6333C18.8 16.1 18.5777 15.6333 18.1333 15.2333L15.8 12.9ZM17.3333 17.3667L16.8 17.8333C16.4444 18.1889 16.1777 18.4778 16 18.7C15.5555 19.1444 15.0222 19.3667 14.4 19.3667H14.2C13.2666 19.3222 12.1777 18.9889 10.9333 18.3667C8.53329 17.2111 6.4444 15.5889 4.66662 13.5C3.28885 11.8111 2.28885 10.1222 1.66662 8.43333C1.26662 7.41111 1.11107 6.52222 1.19996 5.76667C1.2444 5.27778 1.42218 4.87778 1.73329 4.56667L3.19996 3.1C3.42218 2.87778 3.63329 2.76667 3.83329 2.76667C4.03329 2.76667 4.2444 2.87778 4.46662 3.1L6.79996 5.43333C7.19996 5.87778 7.19996 6.3 6.79996 6.7L6.39996 7.1C5.99996 7.54444 5.6444 7.87778 5.33329 8.1V8.16667C5.06662 8.43333 4.99996 8.74444 5.13329 9.1V9.16667C5.39996 9.83333 5.8444 10.5667 6.46662 11.3667C7.62218 12.7889 8.88885 13.9222 10.2666 14.7667L11.2 15.3C11.3777 15.3889 11.5555 15.4333 11.7333 15.4333C11.9111 15.4333 12.0888 15.3222 12.2666 15.1L13.7333 13.7C13.9555 13.4778 14.1666 13.3667 14.3666 13.3667C14.5666 13.3667 14.7777 13.4778 15 13.7L17.3333 16.0333C17.7333 16.4333 17.7333 16.8778 17.3333 17.3667ZM10.8 5.23333C11.9111 5.45555 12.8777 5.96667 13.7 6.76667C14.5222 7.56667 15.0222 8.54444 15.2 9.7C15.2444 9.83333 15.3222 9.94444 15.4333 10.0333C15.5444 10.1222 15.6666 10.1667 15.8 10.1667H15.8666C16.0444 10.1222 16.1777 10.0333 16.2666 9.9C16.3555 9.76667 16.3777 9.63333 16.3333 9.5C16.1111 8.12222 15.5111 6.94444 14.5333 5.96667C13.5555 4.98889 12.3777 4.38889 11 4.16667C10.8666 4.12222 10.7333 4.14444 10.6 4.23333C10.4666 4.32222 10.3888 4.44444 10.3666 4.6C10.3444 4.75556 10.3777 4.9 10.4666 5.03333C10.5555 5.16667 10.6666 5.23333 10.8 5.23333ZM20 9.3C19.6 7.07778 18.5888 5.15555 16.9666 3.53333C15.3444 1.91111 13.4 0.9 11.1333 0.499998C11 0.499998 10.8666 0.544443 10.7333 0.633333C10.6 0.722221 10.5222 0.844444 10.5 0.999998C10.4777 1.15555 10.5111 1.28889 10.6 1.4C10.6888 1.51111 10.8222 1.58889 11 1.63333C13 1.98889 14.7222 2.88889 16.1666 4.33333C17.6111 5.77778 18.5111 7.5 18.8666 9.5C18.8666 9.63333 18.9222 9.74444 19.0333 9.83333C19.1444 9.92222 19.2666 9.96667 19.4 9.96667H19.5333C19.6666 9.96667 19.7777 9.9 19.8666 9.76667C19.9555 9.63333 20 9.47778 20 9.3Z" fill="#CCCCCC"/>
</g>
<defs>
<clipPath id="clip0_344_460">
<rect width="20" height="20" fill="white" transform="matrix(1 0 0 -1 0 20.5)"/>
</clipPath>
</defs>
</svg>
