<svg width="20" height="21" viewBox="0 0 20 21" fill="none" xmlns="http://www.w3.org/2000/svg">
<g clip-path="url(#clip0_344_468)">
<path d="M6.86667 19.3C6.95556 19.3889 7.08889 19.4333 7.26667 19.4333C7.44444 19.4333 7.57778 19.3889 7.66667 19.3C8.28889 18.7222 8.93333 18.0555 9.6 17.3C10.9333 15.8333 12.0222 14.4778 12.8667 13.2333C13.9778 11.4555 14.5333 9.98887 14.5333 8.83332C14.5333 7.49998 14.2111 6.27776 13.5667 5.16665C12.9222 4.05554 12.0444 3.17776 10.9333 2.53332C9.82222 1.88887 8.6 1.56665 7.26667 1.56665C5.93333 1.56665 4.71111 1.88887 3.6 2.53332C2.48889 3.17776 1.61111 4.05554 0.966667 5.16665C0.322222 6.27776 0 7.49998 0 8.83332C0 9.98887 0.555556 11.4555 1.66667 13.2333C2.51111 14.4778 3.6 15.8333 4.93333 17.3C5.6 18.0555 6.24444 18.7222 6.86667 19.3ZM7.26667 2.76665C8.37778 2.76665 9.38889 3.04443 10.3 3.59999C11.2111 4.15554 11.9444 4.88887 12.5 5.79998C13.0556 6.7111 13.3333 7.73332 13.3333 8.86665C13.3333 9.99999 12.5778 11.5889 11.0667 13.6333C9.95556 15.1 8.68889 16.5444 7.26667 17.9667C5.84444 16.5444 4.57778 15.1 3.46667 13.6333C1.95556 11.5889 1.2 9.99999 1.2 8.86665C1.2 7.73332 1.47778 6.7111 2.03333 5.79998C2.58889 4.88887 3.32222 4.15554 4.23333 3.59999C5.14444 3.04443 6.15556 2.76665 7.26667 2.76665ZM10.4 8.83332C10.4 7.98887 10.0889 7.25554 9.46667 6.63332C8.84445 6.0111 8.11111 5.69999 7.26667 5.69999C6.42222 5.69999 5.68889 6.0111 5.06667 6.63332C4.44444 7.25554 4.13333 7.98887 4.13333 8.83332C4.13333 9.67776 4.44444 10.4111 5.06667 11.0333C5.68889 11.6555 6.42222 11.9667 7.26667 11.9667C8.11111 11.9667 8.84445 11.6555 9.46667 11.0333C10.0889 10.4111 10.4 9.67776 10.4 8.83332ZM5.4 8.83332C5.4 8.29998 5.57778 7.85554 5.93333 7.49998C6.28889 7.14443 6.73333 6.96665 7.26667 6.96665C7.8 6.96665 8.24444 7.14443 8.6 7.49998C8.95556 7.85554 9.13333 8.29998 9.13333 8.83332C9.13333 9.36665 8.95556 9.8111 8.6 10.1667C8.24444 10.5222 7.8 10.7 7.26667 10.7C6.73333 10.7 6.28889 10.5222 5.93333 10.1667C5.57778 9.8111 5.4 9.36665 5.4 8.83332Z" fill="#CCCCCC"/>
</g>
<defs>
<clipPath id="clip0_344_468">
<rect width="20" height="20" fill="white" transform="matrix(1 0 0 -1 0 20.5)"/>
</clipPath>
</defs>
</svg>
