<svg width="20" height="21" viewBox="0 0 20 21" fill="none" xmlns="http://www.w3.org/2000/svg">
<g clip-path="url(#clip0_344_464)">
<path d="M18.1333 2.96666H1.86667C1.33333 2.96666 0.888889 3.15555 0.533333 3.53332C0.177778 3.9111 0 4.36666 0 4.89999V16.1C0 16.6333 0.177778 17.0889 0.533333 17.4667C0.888889 17.8444 1.33333 18.0333 1.86667 18.0333H18.1333C18.6667 18.0333 19.1111 17.8444 19.4667 17.4667C19.8222 17.0889 20 16.6333 20 16.1V4.89999C20 4.36666 19.8222 3.9111 19.4667 3.53332C19.1111 3.15555 18.6667 2.96666 18.1333 2.96666ZM18.1333 4.23332C18.2222 4.23332 18.2889 4.25555 18.3333 4.29999L10 11.5667L1.66667 4.29999C1.71111 4.25555 1.77778 4.23332 1.86667 4.23332H18.1333ZM18.1333 16.7667H1.86667C1.68889 16.7667 1.54444 16.7 1.43333 16.5667C1.32222 16.4333 1.26667 16.2778 1.26667 16.1V5.63332L9.6 12.8333C9.73333 12.9222 9.86667 12.9667 10 12.9667C10.1333 12.9667 10.2667 12.9222 10.4 12.8333L18.7333 5.63332V16.1C18.7333 16.2778 18.6778 16.4333 18.5667 16.5667C18.4556 16.7 18.3111 16.7667 18.1333 16.7667Z" fill="#CCCCCC"/>
</g>
<defs>
<clipPath id="clip0_344_464">
<rect width="20" height="20" fill="white" transform="matrix(1 0 0 -1 0 20.5)"/>
</clipPath>
</defs>
</svg>
