<svg width="40" height="40" viewBox="0 0 40 40" fill="none" xmlns="http://www.w3.org/2000/svg">
<g clip-path="url(#clip0_396_37)">
<path d="M24.6 33.9601C24.6 34.2534 24.64 34.4467 24.72 34.5401C24.8 34.6334 24.9733 34.6667 25.24 34.6401C25.9067 34.6134 26.9067 34.6134 28.24 34.6401H29.76V9.40006C29.76 9.21339 29.7333 9.09339 29.68 9.04006C29.6267 8.98673 29.5067 8.96006 29.32 8.96006C28.28 8.98673 26.7067 9.00006 24.6 9.00006V33.9601ZM18.24 34.3201C18.24 34.4534 18.28 34.5401 18.36 34.5801C18.44 34.6201 18.5733 34.6401 18.76 34.6401H22.76C23.0267 34.6401 23.2 34.6201 23.28 34.5801C23.36 34.5401 23.4 34.4401 23.4 34.2801C23.3733 33.5867 23.36 32.5334 23.36 31.1201C23.36 27.4401 23.3733 24.6934 23.4 22.8801C23.4 22.6934 23.3533 22.5734 23.26 22.5201C23.1667 22.4667 22.9733 22.4401 22.68 22.4401C21.4 22.4667 20.12 22.4667 18.84 22.4401C18.6 22.4401 18.4333 22.4667 18.34 22.5201C18.2467 22.5734 18.2133 22.6801 18.24 22.8401V34.3201ZM12.36 34.6401C13.6933 34.5867 15.0267 34.5867 16.36 34.6401C16.6 34.6667 16.7667 34.6267 16.86 34.5201C16.9533 34.4134 16.9867 34.2134 16.96 33.9201V16.8801C16.9867 16.6134 16.96 16.4334 16.88 16.3401C16.8 16.2467 16.6533 16.2134 16.44 16.2401H12.36C12.1467 16.2401 12 16.2867 11.92 16.3801C11.84 16.4734 11.8133 16.6401 11.84 16.8801V34.0001C11.8133 34.2401 11.84 34.4067 11.92 34.5001C12 34.5934 12.1467 34.6401 12.36 34.6401ZM5.96 34.6401C7.29333 34.6401 8.62667 34.6401 9.96 34.6401C10.2 34.6401 10.36 34.6134 10.44 34.5601C10.52 34.5067 10.56 34.4001 10.56 34.2401V24.7201C10.56 24.5867 10.5267 24.4934 10.46 24.4401C10.3933 24.3867 10.2533 24.3601 10.04 24.3601C8.68 24.3867 7.32 24.3867 5.96 24.3601C5.74667 24.3601 5.6 24.3867 5.52 24.4401C5.44 24.4934 5.4 24.5867 5.4 24.7201C5.45333 27.9201 5.45333 31.1067 5.4 34.2801C5.4 34.4134 5.44 34.5067 5.52 34.5601C5.6 34.6134 5.74667 34.6401 5.96 34.6401ZM31.44 34.6401C32.7733 34.6401 34.1067 34.6401 35.44 34.6401C35.68 34.6401 35.8467 34.6134 35.94 34.5601C36.0333 34.5067 36.08 34.4267 36.08 34.3201C36.0533 33.5201 36.04 32.3001 36.04 30.6601C36.04 29.0201 36.0533 27.7867 36.08 26.9601C36.08 26.7734 35.8933 26.6801 35.52 26.6801C34.16 26.7067 32.8 26.7067 31.44 26.6801C31.2533 26.6801 31.12 26.7001 31.04 26.7401C30.96 26.7801 30.92 26.8534 30.92 26.9601V34.3601C30.92 34.4667 30.9533 34.5401 31.02 34.5801C31.0867 34.6201 31.2267 34.6401 31.44 34.6401ZM39.56 35.4801H2.04V2.88006C2.04 2.74673 2 2.64006 1.92 2.56006C1.84 2.48006 1.74667 2.44006 1.64 2.44006H0.44C0.333333 2.44006 0.233333 2.48006 0.14 2.56006C0.0466667 2.64006 0 2.74673 0 2.88006V37.1201C0 37.2267 0.0466667 37.3267 0.14 37.4201C0.233333 37.5134 0.333333 37.5601 0.44 37.5601H39.56C39.6933 37.5601 39.8 37.5134 39.88 37.4201C39.96 37.3267 40 37.2267 40 37.1201V35.9201C40 35.7867 39.96 35.6801 39.88 35.6001C39.8 35.5201 39.6933 35.4801 39.56 35.4801Z" fill="#FFA500"/>
</g>
<defs>
<clipPath id="clip0_396_37">
<rect width="40" height="40" fill="white" transform="matrix(1 0 0 -1 0 40)"/>
</clipPath>
</defs>
</svg>
