<svg width="40" height="40" viewBox="0 0 40 40" fill="none" xmlns="http://www.w3.org/2000/svg">
<path d="M35.08 5.04V5H3.88V5.04C3.37333 5.06667 2.94667 5.26667 2.6 5.64C2.25333 6.01333 2.05333 6.45333 2 6.96V28C2 28.4 2.08 28.76 2.24 29.08C2.64 29.7733 3.24 30.12 4.04 30.12H15.32V32.56H11.8C11.6933 32.56 11.6 32.6 11.52 32.68C11.44 32.76 11.4 32.8533 11.4 32.96V34.6C11.4 34.7067 11.44 34.8 11.52 34.88C11.6 34.96 11.6933 35 11.8 35H27.2C27.3067 35 27.3933 34.96 27.46 34.88C27.5267 34.8 27.56 34.7067 27.56 34.6V32.96C27.56 32.8533 27.5267 32.76 27.46 32.68C27.3933 32.6 27.3067 32.56 27.2 32.56H23.64V30.12H34.92C35.6933 30.12 36.28 29.7733 36.68 29.08C36.8933 28.7067 37 28.3467 37 28V6.96C36.9467 6.45333 36.7333 6.01333 36.36 5.64C35.9867 5.26667 35.56 5.06667 35.08 5.04ZM35.08 7.12V28C35.08 28.1333 35.0267 28.2 34.92 28.2H4.04C3.93333 28.2 3.88 28.1333 3.88 28V6.96H35.08V7.12Z" fill="#FFA500"/>
</svg>
