<svg width="40" height="40" viewBox="0 0 40 40" fill="none" xmlns="http://www.w3.org/2000/svg">
<path d="M17.16 11L17.2 11.08H17.36C17.4133 10.92 17.4067 10.8067 17.34 10.74C17.2733 10.6734 17.1467 10.6267 16.96 10.6L16.8 10.56L16.64 10.6L16.68 10.72L17.16 11ZM21.08 11.6H21.16C21.1867 11.5734 21.26 11.5667 21.38 11.58C21.5 11.5934 21.5733 11.5467 21.6 11.44H21.36C21.2267 11.4134 21.12 11.4134 21.04 11.44V11.52C21.04 11.5734 21.0533 11.6 21.08 11.6ZM19.6 11.44H19.84C19.8133 11.3334 19.72 11.2667 19.56 11.24C19.4 11.2134 19.32 11.2667 19.32 11.4C19.2667 11.4267 19.36 11.44 19.6 11.44ZM14.76 7.56002C14.7067 7.64002 14.6533 7.64668 14.6 7.58002C14.5467 7.51335 14.5067 7.49335 14.48 7.52002L14.4 7.56002C14.3467 7.61335 14.2467 7.68668 14.1 7.78002C13.9533 7.87335 13.8467 7.96002 13.78 8.04002C13.7133 8.12002 13.6933 8.22668 13.72 8.36002C13.9333 8.33335 14.1333 8.24002 14.32 8.08002C14.4267 7.97335 14.5733 7.80002 14.76 7.56002ZM16.44 10.08C16.3067 10.0267 16.2133 10.0333 16.16 10.1C16.1067 10.1667 16.0667 10.2934 16.04 10.48V10.56L16.16 10.68C16.2933 10.6534 16.3933 10.5734 16.46 10.44C16.5267 10.3067 16.52 10.1867 16.44 10.08ZM14.96 7.36002C14.96 7.38668 14.9333 7.45335 14.88 7.56002C14.9067 7.53335 14.94 7.53335 14.98 7.56002C15.02 7.58668 15.04 7.61335 15.04 7.64002L14.6 7.96002C14.7067 7.96002 14.7333 7.98668 14.68 8.04002L14.4 8.16002H14.68C14.6533 8.21335 14.6 8.25335 14.52 8.28002L14.44 8.32002C14.3067 8.37335 14.2533 8.45335 14.28 8.56002L14.56 8.44002L14.88 8.40002C15.1467 8.34668 15.3333 8.29335 15.44 8.24002L15.28 8.16002C15.4667 8.10668 15.5333 8.00002 15.48 7.84002L15.36 7.92002C15.3867 7.84002 15.3933 7.70002 15.38 7.50002C15.3667 7.30002 15.4 7.17335 15.48 7.12002L15.56 7.00002H15.28L15.48 6.88002C15.3467 6.88002 15.1867 6.97335 15 7.16002C14.8933 7.26668 14.8133 7.33335 14.76 7.36002C14.7867 7.41335 14.8267 7.42002 14.88 7.38002C14.9333 7.34002 14.96 7.33335 14.96 7.36002ZM14.8 7.64002C14.8267 7.61335 14.84 7.59335 14.84 7.58002C14.84 7.56668 14.84 7.57335 14.84 7.60002L14.8 7.64002ZM30.68 15.64L30.52 15.6L30.48 15.68L30.44 15.92L30.48 16L30.64 15.92L30.88 16.44H30.92L30.88 16.08H30.96L30.92 15.8L30.76 15.36L30.72 15.32V15.64H30.68ZM30.6 18.08L30.72 18.12L30.84 18.08L30.92 17.8L30.88 17.76L30.48 17.88L30.36 18V18.44L30.32 18.68L30.24 18.92V19.12L30.32 19.52L30.28 19.76L30.32 19.92H30.4L30.44 19.72L30.4 19.28L30.44 19.16L30.52 19.28V19.48L30.6 19.56L30.72 19.44V19.2L30.6 18.92V18.84L30.76 18.52L30.72 18.4L30.64 18.48L30.56 18.6L30.48 18.52L30.44 18.32L30.52 18.12L30.6 18.08ZM30.8 20.32H30.72L30.48 20.44L30.32 20.4L30.24 20.48V20.64L30.28 20.72L30.52 20.64L30.8 20.4V20.32ZM30.32 20.12H30H29.88L29.76 20.24L29.88 20.4L30.12 20.44L30.2 20.4L30.32 20.2V20.12ZM31.12 17.24L31.08 17.12V18.2L31.12 18.24V17.88L31.2 17.72V17.6L31.12 17.24ZM30.88 20.52L30.72 20.72L30.64 20.84L30.6 21.04L30.64 21.16L30.72 21.12L30.88 20.84L31.2 20.44H31.04L30.88 20.52ZM31.68 18.36L31.64 18.4V18.56L31.6 18.8L31.56 18.88L31.52 18.6L31.56 18.32L31.52 18.16L31.48 18.08H31.44L31.4 18.12H31.28L31.32 18.56H31.36V18.64L31.4 18.68H31.48V18.76L31.4 18.84V19.24H31.44V19.08L31.48 19.04V19L31.52 19.04V19.24H31.56L31.6 19.32L31.56 19.72V20.12L31.48 20.24V20.48L31.52 20.4V20.36L31.48 20.64C31.6133 19.9467 31.6933 19.28 31.72 18.64L31.68 18.36ZM29.84 14L29.92 14.28V14.52L30 14.64L30.04 14.76L30.08 14.72V14.4H30.2L30.32 14.48L30.36 14.36L30.28 14.16H30.16L30 14.04L29.84 13.4L29.72 13.16L29.6 13L29.52 12.96V13.04L29.6 13.28L29.68 13.76L29.84 14ZM30.28 14.76L30.24 14.8L30.28 15.04L30.32 15.08L30.36 15.04H30.4V14.92L30.36 14.88L30.32 14.76H30.28ZM30.48 14.76L30.56 15.16L30.6 15.24L30.64 15.2L30.6 15.08V15L30.56 14.88V14.68L30.44 14.56H30.4V14.64L30.48 14.76ZM29.8 19.24L29.96 19.12L30 18.84V18.64L30.12 18.24L30.16 18L30.24 17.84L30.28 17.68L30.24 17.56L30.04 17.2L30.08 16.92L30.16 16.72L30.12 16.52L29.8 16.24L29.68 16.36L29.64 16.8C29.6933 17.3334 29.72 18.1334 29.72 19.2L29.8 19.24ZM26.8 23.6L26.68 23.36L26.44 23.32L26.28 23.44L26.2 23.6L25.6 24.4L24.92 24.76L24.8 24.88L24.72 25L24.68 25.16L24.72 26.04L24.4 26.84V27L24.36 27.28L24.4 27.4L24.64 27.68L25 27.76L25.4 27.48L25.6 26.84L26.44 25.12L26.68 24.04L26.76 23.8H26.8V23.6ZM17.48 2.48002C14.3067 2.48002 11.36 3.28002 8.64 4.88002C6 6.42668 3.92 8.52002 2.4 11.16C0.8 13.88 0 16.8267 0 20C0 23.1734 0.8 26.12 2.4 28.84C3.92 31.48 6 33.5734 8.64 35.12C11.36 36.72 14.3067 37.52 17.48 37.52C20.6533 37.52 23.6 36.72 26.32 35.12C28.96 33.5734 31.0533 31.48 32.6 28.84C34.2 26.12 35 23.1734 35 20C35 16.8267 34.2 13.88 32.6 11.16C31.0533 8.52002 28.96 6.42668 26.32 4.88002C23.6 3.28002 20.6533 2.48002 17.48 2.48002ZM17.48 34.4C15.9867 34.4 14.54 34.1734 13.14 33.72C11.74 33.2667 10.4533 32.6267 9.28 31.8H9.32L9.28 31.76L9 31.6C8.12 30.96 7.41333 30.3334 6.88 29.72L6.84 29.68C6.84 29.6267 6.81333 29.6 6.76 29.6L6.52 29.32C6.54667 29.32 6.55333 29.3 6.54 29.26C6.52667 29.22 6.49333 29.1467 6.44 29.04C6.57333 29.04 6.65333 28.9867 6.68 28.88C6.73333 28.6667 6.66667 28.3867 6.48 28.04L6.4 27.88C6.48 27.88 6.56 27.92 6.64 28C6.72 27.8667 6.78667 27.6534 6.84 27.36L6.88 27.04C6.88 26.88 6.81333 26.6267 6.68 26.28C6.49333 25.8534 6.42667 25.5334 6.48 25.32C6.53333 25.1067 6.65333 24.7867 6.84 24.36C7.10667 23.72 7.26667 23.24 7.32 22.92C7.32 22.8934 7.34667 22.84 7.4 22.76L7.44 22.68C7.54667 22.4667 7.6 22.2934 7.6 22.16C7.68 22.0267 7.69333 21.8934 7.64 21.76L7.6 21.44C7.54667 21.3867 7.52 21.3334 7.52 21.28C7.44 21.1734 7.29333 21.0667 7.08 20.96C7 20.88 6.90667 20.8134 6.8 20.76L6.68 20.72V20.68L6.64 20.6H6.6C6.57333 20.6 6.56 20.5867 6.56 20.56H6.52C6.49333 20.56 6.48 20.5467 6.48 20.52H6.4L6.36 20.48H5.84V20.56L5.8 20.64H5.72C5.77333 20.4534 5.74 20.2867 5.62 20.14C5.5 19.9934 5.34667 19.9467 5.16 20V20.2C5.05333 20.1734 5.02 20.1067 5.06 20C5.1 19.8934 5.07333 19.8267 4.98 19.8C4.88667 19.7734 4.82667 19.82 4.8 19.94C4.77333 20.06 4.72 20.1334 4.64 20.16C4.90667 19.5467 4.86667 18.9734 4.52 18.44C4.46667 18.3334 4.35333 18.1934 4.18 18.02C4.00667 17.8467 3.89333 17.7067 3.84 17.6C3.76 17.4667 3.72 17.3067 3.72 17.12L3.64 16.96C3.58667 16.96 3.54667 16.9734 3.52 17L3.44 17.08V16.76C3.92 14.6534 4.84 12.7467 6.2 11.04C7.56 9.33335 9.2 8.01335 11.12 7.08002C13.12 6.09335 15.24 5.60002 17.48 5.60002C18.1467 5.60002 18.88 5.66668 19.68 5.80002C19.5733 5.80002 19.4533 5.84002 19.32 5.92002L19.16 5.96002C19.1333 5.98668 19.0933 6.00002 19.04 6.00002C19.12 6.02668 19.2133 6.00002 19.32 5.92002H19.36H19.28L19.68 5.84002L19.88 5.88002C19.8267 5.88002 19.76 5.90002 19.68 5.94002C19.6 5.98002 19.5067 6.04002 19.4 6.12002H19.6L19.48 6.24002H19.52C19.3867 6.29335 19.2133 6.32002 19 6.32002L19.4 6.20002C18.92 6.20002 18.3333 6.29335 17.64 6.48002L17.36 6.60002C17.2533 6.62668 17.1467 6.68002 17.04 6.76002C16.6133 6.97335 16.4467 7.12668 16.54 7.22002C16.6333 7.31335 16.7733 7.38668 16.96 7.44002L17.04 7.48002C17.0933 7.50668 17.1333 7.53335 17.16 7.56002C17.1867 7.58668 17.2267 7.62668 17.28 7.68002L17.36 7.76002C17.5733 7.81335 17.7333 7.74002 17.84 7.54002C17.9467 7.34002 17.92 7.16002 17.76 7.00002C17.8133 6.97335 17.8933 6.92002 18 6.84002L18.04 6.76002C18.12 6.65335 18.2267 6.57335 18.36 6.52002C18.28 6.54668 18.2267 6.61335 18.2 6.72002C18.1733 6.82668 18.1867 6.90668 18.24 6.96002C18.3467 7.04002 18.5 7.02668 18.7 6.92002C18.9 6.81335 19.0667 6.77335 19.2 6.80002C19.1733 6.82668 19.12 6.85335 19.04 6.88002L18.88 6.96002C18.7733 6.98668 18.68 7.00002 18.6 7.00002C18.52 7.00002 18.4667 7.05335 18.44 7.16002C18.4133 7.26668 18.44 7.36002 18.52 7.44002C18.4667 7.38668 18.3733 7.36002 18.24 7.36002C18.2133 7.68002 18.0467 7.88002 17.74 7.96002C17.4333 8.04002 17.1467 8.00002 16.88 7.84002H16.96C17.04 7.86668 17.0933 7.83335 17.12 7.74002C17.1467 7.64668 17.0933 7.64002 16.96 7.72002V7.48002C16.7733 7.45335 16.68 7.61335 16.68 7.96002L16.4 7.92002C15.9733 8.21335 15.4133 8.48002 14.72 8.72002L14.36 8.88002C14.52 8.93335 14.6 9.06668 14.6 9.28002C14.6 9.49335 14.52 9.58668 14.36 9.56002C13.8 9.37335 13.36 9.30668 13.04 9.36002C12.6133 9.41335 12.36 9.68002 12.28 10.16C12.28 10.1867 12.2667 10.2534 12.24 10.36C12.16 10.4934 12.16 10.5867 12.24 10.64C12.48 10.8267 12.7733 10.9334 13.12 10.96C13.4667 10.9867 13.8133 10.9334 14.16 10.8C14.2133 10.7734 14.3 10.6934 14.42 10.56C14.54 10.4267 14.64 10.3467 14.72 10.32L15.04 10.16C15.1467 10.0534 15.2267 9.96002 15.28 9.88002C15.44 9.77335 15.56 9.72002 15.64 9.72002L16.12 9.64002C16.2533 9.64002 16.36 9.62668 16.44 9.60002L16.88 10C17.44 10.48 17.7867 10.8667 17.92 11.16C17.9467 11.0267 18.0067 10.9267 18.1 10.86C18.1933 10.7934 18.3067 10.8267 18.44 10.96C18.36 10.8267 18.1733 10.64 17.88 10.4C17.64 10.1867 17.4667 10.0267 17.36 9.92002C17.2 9.73335 17.1067 9.54668 17.08 9.36002L17.48 9.64002C17.8267 9.88002 18.08 10.0667 18.24 10.2C18.5333 10.44 18.76 10.7067 18.92 11C19.1067 11.08 19.26 11.0867 19.38 11.02C19.5 10.9534 19.52 10.8534 19.44 10.72L19.4 10.68C19.32 10.5734 19.3067 10.48 19.36 10.4C19.4133 10.32 19.4533 10.28 19.48 10.28C19.5067 10.28 19.5467 10.3067 19.6 10.36C19.7067 10.6267 19.9067 10.8134 20.2 10.92C20.36 10.9734 20.6133 11.0134 20.96 11.04C21.3867 11.0934 21.6667 11.1734 21.8 11.28C22.0133 11.44 22.0733 11.6134 21.98 11.8C21.8867 11.9867 21.6933 12.1334 21.4 12.24C21.1067 12.3467 20.8267 12.3867 20.56 12.36L20.28 12.28C19.8267 12.1734 19.5067 12.08 19.32 12L19.04 11.96C19.0133 11.9334 18.9467 11.9334 18.84 11.96H18.8C18.7733 11.9867 18.7333 12.0267 18.68 12.08L18.64 12.12C18.6133 12.1467 18.6 12.2134 18.6 12.32C18.6 12.3467 18.58 12.38 18.54 12.42C18.5 12.46 18.4 12.4534 18.24 12.4L17.68 12.12C17.5733 12.0667 17.4933 12.04 17.44 12.04C17.1467 12.0134 16.9133 11.92 16.74 11.76C16.5667 11.6 16.5467 11.3867 16.68 11.12C16.28 10.96 15.8133 10.9067 15.28 10.96L14.92 11.04C14.4933 11.1734 13.8533 11.24 13 11.24C12.6 11.24 12.2533 11.5734 11.96 12.24L11.76 12.48C11.5467 12.7467 11.28 12.9467 10.96 13.08C10.8 13.16 10.68 13.24 10.6 13.32C10.2267 13.6134 9.92 14.0267 9.68 14.56C9.52 14.88 9.34667 15.4 9.16 16.12L9.12 16.28C9.09333 16.3067 9.08 16.3734 9.08 16.48C9.10667 16.5067 9.10667 16.5734 9.08 16.68V16.76C9.08 16.8667 9.06667 16.9334 9.04 16.96L9.08 17.08C9.08 17.1067 9.09333 17.12 9.12 17.12H9.16C9.26667 17.1734 9.34667 17.2667 9.4 17.4L9.6 17.76C9.84 18.56 10.3733 19.0267 11.2 19.16C11.8933 19.2667 12.6533 19.16 13.48 18.84L13.84 18.76C13.92 18.76 14.0133 18.7334 14.12 18.68C14.44 18.7334 14.6 18.78 14.6 18.82C14.6 18.86 14.6133 18.88 14.64 18.88L14.84 19.16C14.8667 19.1867 14.9933 19.2 15.22 19.2C15.4467 19.2 15.6267 19.3067 15.76 19.52C15.84 19.7067 15.8667 19.9734 15.84 20.32C15.84 20.56 15.8533 20.7334 15.88 20.84C15.9067 21.0267 16 21.1734 16.16 21.28L16.56 21.84C16.7733 22.2134 16.88 22.5067 16.88 22.72C16.88 22.8534 16.92 23 17 23.16L17.04 23.2C17.0933 23.3067 17.0933 23.4267 17.04 23.56L17 23.8C16.6267 24.3067 16.4667 24.8 16.52 25.28C16.6 25.4934 16.7467 25.8134 16.96 26.24C17.28 26.88 17.4667 27.36 17.52 27.68V27.8C17.5733 27.8534 17.6 27.9067 17.6 27.96L17.68 28.04C17.7067 28.04 17.72 28.04 17.72 28.04V28.08C17.7467 28.08 17.76 28.08 17.76 28.08L17.88 28.28C17.96 28.44 18.0133 28.5334 18.04 28.56C18.0667 28.5867 18.1067 28.6667 18.16 28.8L18.2 28.88C18.2267 28.9067 18.24 28.9467 18.24 29C18.24 29.0534 18.2267 29.08 18.2 29.08C18.1733 29.08 18.1733 29.0934 18.2 29.12V29.16C18.1733 29.1867 18.1733 29.2134 18.2 29.24V29.28C18.2 29.3334 18.24 29.3867 18.32 29.44L18.44 29.6L18.68 29.64H18.92L19 29.6C19.0267 29.6 19.04 29.5867 19.04 29.56L19.16 29.48C19.16 29.4267 19.4 29.4 19.88 29.4L21 28.84L21.4 28.36C21.4 28.3067 21.4533 28.24 21.56 28.16L21.64 28.08C21.7733 27.9734 21.8667 27.84 21.92 27.68C21.92 27.6267 21.9467 27.5334 22 27.4L22.04 27.36C22.0933 27.3067 22.1867 27.2467 22.32 27.18C22.4533 27.1134 22.52 27.04 22.52 26.96C22.68 26.24 22.9867 25.5734 23.44 24.96L23.64 24.64C24.0133 23.9467 24.1867 23.24 24.16 22.52L24.08 22.28C23.76 21.08 24.48 20.0934 26.24 19.32L26.44 18.88C26.5467 18.56 26.6267 18.32 26.68 18.16L26.8 17.88C26.9067 17.7734 26.9467 17.5867 26.92 17.32V17.2C26.76 17.28 26.5067 17.3334 26.16 17.36C25.9467 17.36 25.8 17.3734 25.72 17.4L25.44 17.44L25.36 17.4C25.3067 17.4 25.28 17.3867 25.28 17.36L24.84 17.16C24.76 17.1334 24.68 17.08 24.6 17L24.48 16.88C24.4533 16.8534 24.4 16.7867 24.32 16.68L24.2 16.48C24.1733 16.4534 24.1067 16.3867 24 16.28L23.72 15.88C23.5067 15.5867 23.36 15.3467 23.28 15.16L23 14.72C22.7333 14.3467 22.5467 14.0534 22.44 13.84L22.24 13.56C22.1333 13.4534 22.0667 13.3734 22.04 13.32C21.96 13.24 21.88 13.16 21.8 13.08L21.68 12.96C21.6533 12.9334 21.64 12.9067 21.64 12.88C21.64 12.8534 21.6667 12.84 21.72 12.84C21.8267 12.7867 21.9 12.7734 21.94 12.8C21.98 12.8267 22.0267 12.8934 22.08 13C22.1333 13.1334 22.2133 13.2 22.32 13.2L22.8 13.68C22.8533 13.76 22.9467 13.8667 23.08 14L23.48 14.52C23.7467 14.92 23.96 15.2134 24.12 15.4L24.28 15.64L24.44 15.96C24.52 16.44 24.8 16.68 25.28 16.68C25.5467 16.7067 25.96 16.6134 26.52 16.4L26.8 16.32C27.0933 16.1867 27.2933 16.0667 27.4 15.96C27.5867 15.8 27.6933 15.6134 27.72 15.4C27.8267 15.0267 27.76 14.6667 27.52 14.32C27.3867 14.1067 27.12 13.8267 26.72 13.48L26.56 13.36C26.5333 13.6267 26.4067 13.7734 26.18 13.8C25.9533 13.8267 25.7867 13.7334 25.68 13.52L25.56 13.28L25.48 13.52C25.4 13.2534 25.2 12.9334 24.88 12.56C25.04 12.56 25.2667 12.64 25.56 12.8L26.2 13.08C26.6533 13.2667 27 13.3867 27.24 13.44C27.64 13.5467 28.0267 13.5867 28.4 13.56C28.5333 13.5334 28.6533 13.64 28.76 13.88L28.8 14.2C28.8267 14.28 28.84 14.3867 28.84 14.52C28.8667 14.4934 28.9067 14.4267 28.96 14.32L29.04 14.2L29.2 13.84C29.44 13.2 29.44 12.4667 29.2 11.64C30.0533 12.84 30.7133 14.1534 31.18 15.58C31.6467 17.0067 31.88 18.48 31.88 20C31.88 22.6134 31.2267 25.04 29.92 27.28C28.64 29.44 26.92 31.16 24.76 32.44C22.52 33.7467 20.0933 34.4 17.48 34.4ZM19.52 5.84002C19.4933 5.86668 19.4533 5.88002 19.4 5.88002L19.52 5.84002Z" fill="#FFA500"/>
</svg>
