<svg width="40" height="40" viewBox="0 0 40 40" fill="none" xmlns="http://www.w3.org/2000/svg">
<path d="M8.12 8.52002H9.12C9.49333 8.52002 9.81333 8.36002 10.08 8.04002C10.3467 7.72002 10.48 7.33335 10.48 6.88002V4.16002C10.48 3.70669 10.3467 3.32002 10.08 3.00002C9.81333 2.68002 9.49333 2.52002 9.12 2.52002H8.12C7.74667 2.52002 7.42 2.68002 7.14 3.00002C6.86 3.32002 6.72 3.70669 6.72 4.16002V6.88002C6.72 7.33335 6.86 7.72002 7.14 8.04002C7.42 8.36002 7.74667 8.52002 8.12 8.52002ZM24.16 8.52002H25.16C25.5333 8.52002 25.86 8.36002 26.14 8.04002C26.42 7.72002 26.56 7.33335 26.56 6.88002V4.16002C26.56 3.70669 26.42 3.32002 26.14 3.00002C25.86 2.68002 25.5333 2.52002 25.16 2.52002H24.16C23.7867 2.52002 23.4667 2.68002 23.2 3.00002C22.9333 3.32002 22.8 3.70669 22.8 4.16002V6.88002C22.8 7.33335 22.9333 7.72002 23.2 8.04002C23.4667 8.36002 23.7867 8.52002 24.16 8.52002ZM29.6 5.52002H28.2V6.88002C28.2 7.78669 27.9 8.56002 27.3 9.20002C26.7 9.84002 25.9867 10.16 25.16 10.16H24.16C23.3333 10.16 22.6267 9.84002 22.04 9.20002C21.4533 8.56002 21.16 7.78669 21.16 6.88002V5.52002H12.12V6.88002C12.12 7.78669 11.8267 8.56002 11.24 9.20002C10.6533 9.84002 9.94667 10.16 9.12 10.16H8.12C7.29333 10.16 6.58 9.84002 5.98 9.20002C5.38 8.56002 5.08 7.78669 5.08 6.88002V5.52002H4.24C3.46667 5.52002 2.75333 5.70669 2.1 6.08002C1.44667 6.45335 0.933333 6.96002 0.56 7.60002C0.186667 8.24002 0 8.94669 0 9.72002V33.28C0 34.0534 0.186667 34.76 0.56 35.4C0.933333 36.04 1.44667 36.5534 2.1 36.94C2.75333 37.3267 3.46667 37.52 4.24 37.52H29.6C30.3733 37.52 31.0867 37.3267 31.74 36.94C32.3933 36.5534 32.9067 36.04 33.28 35.4C33.6533 34.76 33.84 34.0534 33.84 33.28V9.72002C33.84 8.97335 33.6467 8.27335 33.26 7.62002C32.8733 6.96669 32.36 6.45335 31.72 6.08002C31.08 5.70669 30.3733 5.52002 29.6 5.52002ZM31.84 32.92C31.84 33.5067 31.6333 34.0067 31.22 34.42C30.8067 34.8334 30.3067 35.04 29.72 35.04H4.12C3.53333 35.04 3.03333 34.8334 2.62 34.42C2.20667 34.0067 2 33.5067 2 32.92V13.72H31.84V32.92ZM7.08 21H26.76C27.0533 21 27.3067 20.8334 27.52 20.5C27.7333 20.1667 27.84 19.76 27.84 19.28C27.84 18.8 27.7333 18.3867 27.52 18.04C27.3067 17.6934 27.0533 17.52 26.76 17.52H7.08C6.78667 17.52 6.52667 17.6934 6.3 18.04C6.07333 18.3867 5.96 18.8 5.96 19.28C5.96 19.76 6.07333 20.1667 6.3 20.5C6.52667 20.8334 6.78667 21 7.08 21ZM7.08 26.48H26.76C27.0533 26.48 27.3067 26.3134 27.52 25.98C27.7333 25.6467 27.84 25.24 27.84 24.76C27.84 24.28 27.7333 23.8667 27.52 23.52C27.3067 23.1734 27.0533 23 26.76 23H7.08C6.78667 23 6.52667 23.1734 6.3 23.52C6.07333 23.8667 5.96 24.28 5.96 24.76C5.96 25.24 6.07333 25.6467 6.3 25.98C6.52667 26.3134 6.78667 26.48 7.08 26.48ZM7.08 31.96H18.96C19.2533 31.96 19.5133 31.7867 19.74 31.44C19.9667 31.0934 20.08 30.68 20.08 30.2C20.08 29.72 19.9667 29.3134 19.74 28.98C19.5133 28.6467 19.2533 28.48 18.96 28.48H7.08C6.78667 28.48 6.52667 28.6467 6.3 28.98C6.07333 29.3134 5.96 29.72 5.96 30.2C5.96 30.68 6.07333 31.0934 6.3 31.44C6.52667 31.7867 6.78667 31.96 7.08 31.96Z" fill="#FFA500"/>
</svg>
